HIERARCHY
ROOT Hips
{
  OFFSET -0.209685 96.8144 0.798002
  CHANNELS 6 Xposition Yposition Zposition Zrotation Xrotation Yrotation
  JOINT Spine
  {
    OFFSET 0 10.1816 0.1315
    CHANNELS 3 Zrotation Xrotation Yrotation
    JOINT Spine1
    {
      OFFSET 0 10.0835 -1.0008
      CHANNELS 3 Zrotation Xrotation Yrotation
      JOINT Spine2
      {
        OFFSET 0 9.1 -1.3734
        CHANNELS 3 Zrotation Xrotation Yrotation
        JOINT Neck
        {
          OFFSET 0 16.6717 -2.5162
          CHANNELS 3 Zrotation Xrotation Yrotation
          JOINT Head
          {
            OFFSET 0 9.6179 1.685
            CHANNELS 3 Zrotation Xrotation Yrotation
            End Site
            {
              OFFSET 0 0 0
            }
          }
        }
        JOINT LeftShoulder
        {
          OFFSET 4.5704 10.946 -2.628
          CHANNELS 3 Zrotation Xrotation Yrotation
          JOINT LeftArm
          {
            OFFSET 10.5924 -0.5246 -2.2321
            CHANNELS 3 Zrotation Xrotation Yrotation
            JOINT LeftForeArm
            {
              OFFSET 27.8415 -0.0001 0
              CHANNELS 3 Zrotation Xrotation Yrotation
              JOINT LeftHand
              {
                OFFSET 28.3288 0 0
                CHANNELS 3 Zrotation Xrotation Yrotation
                End Site
                {
                  OFFSET 0 0 0
                }
              }
            }
          }
        }
        JOINT RightShoulder
        {
          OFFSET -4.57 10.9462 -2.628
          CHANNELS 3 Zrotation Xrotation Yrotation
          JOINT RightArm
          {
            OFFSET -10.5928 -0.5248 -2.2321
            CHANNELS 3 Zrotation Xrotation Yrotation
            JOINT RightForeArm
            {
              OFFSET -27.8415 0 0
              CHANNELS 3 Zrotation Xrotation Yrotation
              JOINT RightHand
              {
                OFFSET -28.3288 0 0.0001
                CHANNELS 3 Zrotation Xrotation Yrotation
                End Site
                {
                  OFFSET 0 0 0
                }
              }
            }
          }
        }
      }
    }
  }
  JOINT LeftUpLeg
  {
    OFFSET 8.2078 -6.7517 -1.5996
    CHANNELS 3 Zrotation Xrotation Yrotation
    JOINT LeftLeg
    {
      OFFSET 0 -44.3705 0.2846
      CHANNELS 3 Zrotation Xrotation Yrotation
      JOINT LeftFoot
      {
        OFFSET 0 -44.4279 -2.9822
        CHANNELS 3 Zrotation Xrotation Yrotation
        JOINT LeftToeBase
        {
          OFFSET 0 -8.7287 10.7106
          CHANNELS 3 Zrotation Xrotation Yrotation
          End Site
          {
            OFFSET 0 0 0
          }
        }
      }
    }
  }
  JOINT RightUpLeg
  {
    OFFSET -8.2078 -6.7517 -1.5996
    CHANNELS 3 Zrotation Xrotation Yrotation
    JOINT RightLeg
    {
      OFFSET 0 -44.3705 0.2862
      CHANNELS 3 Zrotation Xrotation Yrotation
      JOINT RightFoot
      {
        OFFSET 0 -44.4277 -2.9838
        CHANNELS 3 Zrotation Xrotation Yrotation
        JOINT RightToeBase
        {
          OFFSET 0 -8.7287 10.7106
          CHANNELS 3 Zrotation Xrotation Yrotation
          End Site
          {
            OFFSET 0 0 0
          }
        }
      }
    }
  }
}
MOTION
Frames:	8
Frame Time:	0.0333333
-0.209685 96.8144 0.798002 -1.92399 3.81428 -3.33949 1.1345 2.88784 1.3982 0.0414321 5.78144 3.29268 0.0414317 5.78145 3.29268 -1.54961 -3.82715 -1.4305 -0.966965 -9.20986 -1.88187 -10.3489 -1.79579 -7.9404 -76.2959 18.6134 25.9581 16.7315 -9.55871 -89.7791 15.4938 -9.08987 -26.2528 17.106 1.22361 16.2552 61.7429 9.60906 -3.49991 -41.5839 -10.9745 97.5107 -1.97832 -6.33301 19.0657 5.2322 -28.8187 0.456573 0.708588 79.31 0.831686 2.12654 -4.42764 0.466061 -3.68951e-06 0.187008 6.73949e-07 9.12591 -6.31903 -7.66592 -8.0339 37.2517 3.44608 -3.11185 -14.5131 -0.321024 2.0282 -25.4567 -1.97136 
0.0284457 99.8103 7.37474 -0.280911 4.19956 -3.86025 0.820372 2.81017 1.94072 -0.686 5.60937 4.27321 -0.686 5.60937 4.27321 -2.34171 -2.34671 -1.47132 0.785761 -8.84293 -2.42114 -9.31072 -1.88675 -7.44921 -76.6896 20.5422 31.3298 19.9986 -11.49 -94.118 18.8677 -9.03242 -22.1704 17.3891 1.40666 17.4358 61.4074 9.30575 -1.40683 -43.5907 -12.7241 98.9202 0.136285 -6.03759 19.3796 2.51139 -27.9834 -0.573072 0.702451 66.2191 5.33146 -3.59476 -3.50227 0.868692 0.607528 -0.335154 0.00354885 6.39435 -0.221641 -9.99772 -7.47947 27.8431 5.94671 -2.98087 3.27068 0.394412 1.81784 -35.2525 -0.252735 
0.345297 102.546 14.0458 1.16475 4.65712 -4.08035 0.465901 2.71472 2.34589 -1.52993 5.39573 5.00097 -1.52993 5.39573 5.00097 -2.12525 -1.77851 -1.80584 1.45495 -8.65913 -2.82799 -10.1814 -2.05212 -6.67282 -74.9042 22.2434 36.2245 21.0668 -14.5894 -99.1245 18.3729 -7.79902 -17.5845 17.6615 1.59008 18.5987 61.1996 9.01229 0.661962 -45.3002 -14.5802 100.217 2.29811 -5.62051 20.3554 -0.669894 -26.2226 -2.07624 1.7665 51.2337 9.87406 -4.05884 -2.25047 0.746151 0.0662295 -0.887212 -0.48127 4.17053 6.83538 -12.4848 -5.98001 15.7567 7.10569 -0.275823 21.3439 1.3932 -1.42854 -43.709 1.87371 
0.773589 104.122 20.5558 2.31892 6.74647 -3.82673 -0.00797044 2.31386 2.58523 -2.20075 4.57488 5.37132 -2.20075 4.57488 5.37132 -1.40072 -2.36667 -2.35095 1.30998 -8.58835 -3.14576 -11.4705 -2.28078 -5.70303 -73.0284 23.5368 40.0658 20.6984 -17.7332 -104.132 15.8918 -6.15163 -12.4445 17.9142 1.81113 19.9636 61.0866 8.67361 3.09792 -47.1227 -16.7998 101.54 4.8258 -5.0765 21.7946 -4.08643 -26.0052 -3.83671 3.10214 35.9509 11.4077 -3.44374 -2.90368 0.738605 -0.740136 0.718264 0.217411 2.50774 7.94601 -14.6168 -6.41278 12.6861 6.20158 6.35725 29.649 0.467916 -8.43804 -37.3305 3.35684 
1.16991 104.935 27.171 2.64469 8.89321 -3.29159 -0.402456 1.91068 2.72704 -2.41434 3.76053 5.61916 -2.41434 3.76053 5.61917 -0.682837 -3.68139 -2.88283 0.873927 -8.63353 -3.40118 -12.0115 -2.42766 -5.0926 -72.2818 24.1076 42.2843 20.5634 -19.6977 -107.497 14.8252 -5.00671 -7.61417 18.1664 1.9593 20.8812 61.1678 8.45954 4.73312 -48.1912 -18.514 102.509 6.64793 -4.60391 23.21 -5.49802 -24.4109 -3.50131 2.28171 19.0381 8.45902 -3.26549 -4.72775 0.642022 -0.98673 5.27588 2.71567 1.75219 7.49056 -15.2282 -7.42884 13.5163 3.7971 12.6575 33.2959 -0.967859 -12.8559 -21.8922 4.51815 
1.62641 104.932 33.8279 2.50362 9.07532 -2.60933 -0.754394 1.82877 2.72019 -2.2879 3.59683 5.70738 -2.2879 3.59682 5.70738 -0.256506 -4.68127 -3.20356 0.675646 -8.82308 -3.56623 -11.6758 -2.45812 -4.90099 -72.2807 24.2652 43.8418 19.2004 -21.1516 -110.078 13.7206 -4.03807 -3.21454 18.4854 1.97318 21.0022 61.4098 8.35778 4.95993 -47.9787 -19.0025 103.004 7.05379 -4.35644 24.1755 -5.83349 -18.8608 -1.41643 -0.0444162 1.29388 3.17291 -2.43989 -2.08803 1.10215 -1.16765 8.52897 4.64052 1.06382 9.20632 -15.2608 -8.05497 15.2311 2.8888 15.86 34.0888 -1.88673 -5.18531 3.22337 3.29459 
2.10786 103.662 40.5471 2.52451 7.19554 -1.71569 -0.839464 2.06117 2.58298 -2.25346 4.06474 5.45021 -2.25346 4.06475 5.45021 -0.0371507 -4.72919 -3.27754 0.834854 -9.01038 -3.59436 -10.7039 -2.38488 -5.09879 -72.5353 24.3362 44.8509 16.3121 -22.3217 -112.132 10.8955 -3.26308 -0.405273 18.8747 1.94491 20.8669 61.7706 8.1806 4.76658 -47.3735 -18.8783 103.289 6.81267 -4.27334 24.5745 -6.6705 -18.2338 -0.508429 -2.06854 1.9682 1.77834 0.990152 -1.79789 0.789614 -1.29268 7.82099 3.81973 -0.242598 12.1217 -14.9762 -8.75824 19.8017 3.94874 15.7254 32.4404 -1.57727 4.74369 5.85801 1.93987 
2.50106 101.323 47.273 3.21886 4.38787 -0.731761 -0.781999 2.44135 2.36883 -2.44853 4.82654 4.97468 -2.44853 4.82655 4.97469 0.291453 -4.25396 -3.20269 1.08015 -8.88291 -3.46581 -9.89723 -2.27437 -5.52504 -72.7967 24.4727 44.3096 14.6529 -22.4901 -112.307 9.91452 -3.05943 0.550879 19.3068 1.87889 20.5068 62.1969 7.98674 4.19524 -46.4519 -18.3201 103.403 6.05176 -4.38258 24.1774 -8.81865 -21.9727 -1.56905 -2.31548 17.8413 7.34751 7.17419 -5.8612 -1.35247 -1.03136 3.94032 1.29911 -2.64249 14.3352 -14.2094 -9.60354 27.6955 5.21068 13.7065 30.0402 -0.638198 5.58527 1.3256 1.58588 
